<svg width="214" height="38" viewBox="0 0 214 38" fill="none" xmlns="http://www.w3.org/2000/svg">
<path d="M144.815 26.9822H147.562L147.426 27.6732H145.527H145.325L145.283 27.8896L145.063 29.024L145.021 29.2439H145.223H146.595L146.462 29.9349H145.087H144.885L144.843 30.1513L144.623 31.2857L144.581 31.5056H144.784H146.682L146.546 32.1966H144.648H143.799L144.815 26.9822ZM147.817 26.9926H148.557L149.084 28.5598L149.195 28.8879L149.436 28.5598L150.577 26.9926H151.317L149.509 29.4777L149.429 29.5859L149.468 29.6941L150.309 32.1827H149.569L149.035 30.6155L148.927 30.284L148.686 30.6155L147.541 32.1862L146.804 32.1827L148.609 29.6906L148.689 29.5824L148.651 29.4777L147.817 26.9926ZM150.755 32.1827L151.042 30.7133L151.426 28.7448L151.764 26.9926H152.612H153.398C153.624 26.9926 153.823 27.0345 153.998 27.1218C154.169 27.2055 154.323 27.3347 154.452 27.5092C154.577 27.6802 154.665 27.8687 154.706 28.0746C154.745 28.2805 154.738 28.5074 154.693 28.7482C154.644 28.9926 154.563 29.2159 154.445 29.4219C154.326 29.6243 154.169 29.8128 153.977 29.9838C153.782 30.1548 153.576 30.284 153.366 30.3712C153.157 30.455 152.94 30.4969 152.717 30.4969H151.932H151.729L151.687 30.7133L151.401 32.1827H150.755ZM151.907 29.5929L151.862 29.8093H152.064L152.85 29.8128C152.989 29.8128 153.118 29.7883 153.244 29.736C153.366 29.6871 153.488 29.6103 153.611 29.5021C153.722 29.3974 153.82 29.2823 153.893 29.1566C153.967 29.0379 154.015 28.9018 154.047 28.7482C154.075 28.5982 154.078 28.4655 154.05 28.3434C154.029 28.2282 153.98 28.113 153.904 27.9978C153.83 27.8931 153.736 27.8128 153.631 27.7605C153.527 27.7081 153.405 27.6802 153.265 27.6802H152.48H152.277L152.235 27.8966L152.071 28.7448L151.907 29.5929ZM155.481 26.9822H158.228L158.092 27.6732H156.193H155.991L155.949 27.8896L155.729 29.024L155.687 29.2439H155.89H157.261L157.129 29.9349H155.754H155.551L155.509 30.1513L155.289 31.2857L155.247 31.5056H155.45H157.349L157.212 32.1966H155.314H154.466L155.481 26.9822ZM157.663 32.1827L158.668 26.9926H160.176C160.417 26.9926 160.636 27.038 160.832 27.1288C161.017 27.216 161.174 27.3382 161.303 27.5022C161.432 27.6802 161.513 27.8512 161.547 28.0153C161.582 28.1863 161.579 28.3887 161.533 28.6261L161.506 28.7727C161.471 28.9507 161.415 29.1182 161.334 29.2683C161.258 29.4114 161.153 29.5615 161.024 29.7185C160.916 29.8442 160.818 29.9349 160.731 29.9943C160.647 30.0536 160.539 30.1094 160.399 30.1618L160.155 30.2595L160.242 30.4829L160.933 32.1827H160.127L159.38 30.3642H158.664L158.312 32.1827H157.663ZM159.404 29.6697H159.753V29.6732C159.886 29.6732 160.008 29.6487 160.116 29.6034C160.214 29.558 160.319 29.4847 160.434 29.3835C160.553 29.2788 160.643 29.1671 160.706 29.0484C160.769 28.9402 160.814 28.8111 160.842 28.661C160.87 28.5249 160.874 28.3992 160.856 28.284C160.835 28.1863 160.79 28.0816 160.713 27.9699V27.9664C160.643 27.8722 160.542 27.8024 160.406 27.75C160.28 27.7012 160.134 27.6767 159.977 27.6767H159.387H159.184L159.143 27.8966L158.839 29.4498L158.797 29.6662H159L159.244 29.6697H159.404ZM162.821 26.9926H163.879H164.961L164.828 27.6802H163.743H163.54L163.498 27.8966L162.664 32.1827H162.019L162.853 27.8966L162.895 27.6802H162.689H161.603L161.739 26.9926H162.821ZM166.947 26.9508C167.289 26.9508 167.589 27.0136 167.847 27.1427C168.106 27.2719 168.332 27.4673 168.528 27.7291C168.72 27.9909 168.846 28.2736 168.905 28.5807C168.964 28.8948 168.961 29.2334 168.891 29.5929C168.821 29.9559 168.695 30.2944 168.514 30.6051C168.336 30.9157 168.099 31.1984 167.805 31.4567C167.519 31.7115 167.216 31.9069 166.898 32.0361C166.58 32.1652 166.252 32.228 165.921 32.228C165.582 32.228 165.282 32.1652 165.017 32.0361C164.751 31.9069 164.528 31.715 164.34 31.4567C164.144 31.1949 164.022 30.9122 163.966 30.6016C163.907 30.2979 163.91 29.9629 163.984 29.5929C164.053 29.2264 164.179 28.8879 164.357 28.5842C164.532 28.2805 164.765 27.9943 165.062 27.7256C165.355 27.4638 165.659 27.2719 165.97 27.1427C166.277 27.0136 166.601 26.9508 166.947 26.9508ZM166.811 27.6523C166.566 27.6523 166.326 27.7012 166.092 27.7954C165.854 27.8966 165.635 28.0397 165.432 28.2212C165.219 28.4132 165.045 28.6191 164.916 28.846C164.783 29.0728 164.692 29.3206 164.64 29.5859C164.587 29.8547 164.584 30.1025 164.626 30.3258C164.668 30.5527 164.758 30.7586 164.902 30.9506C165.031 31.1356 165.198 31.2787 165.397 31.3729C165.596 31.4672 165.816 31.516 166.06 31.516C166.301 31.516 166.538 31.4672 166.772 31.3729C167.006 31.2787 167.226 31.1356 167.435 30.9506C167.648 30.7586 167.823 30.5527 167.952 30.3258C168.088 30.099 168.182 29.8547 168.235 29.5859C168.287 29.3241 168.287 29.0763 168.242 28.846C168.196 28.6226 168.106 28.4132 167.97 28.2212C167.833 28.0362 167.662 27.8966 167.467 27.7954C167.271 27.7012 167.052 27.6523 166.811 27.6523ZM170.179 31.53C170.28 31.523 170.385 31.4986 170.489 31.4567C170.594 31.4148 170.688 31.3625 170.779 31.2961C170.87 31.2298 170.95 31.1461 171.017 31.0483C171.083 30.9506 171.125 30.8459 171.146 30.7342C171.167 30.64 171.163 30.5527 171.142 30.4724C171.121 30.3922 171.086 30.3224 171.037 30.2665C170.989 30.2107 170.926 30.1548 170.849 30.106C170.772 30.0571 170.695 30.0187 170.622 29.9873C170.549 29.9559 170.469 29.928 170.378 29.9C170.175 29.8372 170.004 29.7534 169.858 29.6522C169.711 29.551 169.589 29.4219 169.495 29.2578C169.432 29.1461 169.39 29.024 169.369 28.8844C169.348 28.7448 169.355 28.5982 169.383 28.4481C169.421 28.2456 169.495 28.0502 169.603 27.8687C169.711 27.6872 169.844 27.5266 169.997 27.3905C170.154 27.2509 170.322 27.1427 170.507 27.0659C170.692 26.9891 170.884 26.9508 171.072 26.9508C171.243 26.9508 171.4 26.9857 171.544 27.0485C171.687 27.1113 171.812 27.2021 171.914 27.3172C172.085 27.5127 172.182 27.757 172.2 28.0432L171.53 28.1898C171.516 28.0816 171.474 27.9839 171.411 27.8931C171.296 27.7361 171.139 27.6628 170.94 27.6628C170.842 27.6628 170.744 27.6802 170.647 27.7221C170.549 27.764 170.458 27.8198 170.374 27.8931C170.291 27.9664 170.221 28.0537 170.165 28.1514C170.109 28.2491 170.071 28.3469 170.05 28.4516C170.036 28.5284 170.032 28.6017 170.039 28.668C170.046 28.7343 170.064 28.7901 170.088 28.839C170.113 28.8879 170.144 28.9332 170.189 28.9786C170.235 29.024 170.277 29.0589 170.322 29.0868C170.367 29.1147 170.416 29.1461 170.479 29.1741C170.542 29.202 170.598 29.2264 170.643 29.2439C170.688 29.2613 170.748 29.2788 170.811 29.3032C170.873 29.3276 170.922 29.3451 170.954 29.359C171.062 29.4044 171.167 29.4568 171.261 29.5161C171.355 29.5754 171.442 29.6522 171.523 29.736C171.603 29.8198 171.669 29.914 171.722 30.0117C171.774 30.1094 171.805 30.2246 171.823 30.3503C171.84 30.4759 171.837 30.6051 171.809 30.7412C171.77 30.9471 171.69 31.1426 171.571 31.331C171.453 31.5195 171.313 31.6766 171.153 31.8092C170.992 31.9418 170.814 32.0465 170.619 32.1233C170.423 32.2001 170.235 32.242 170.046 32.242C169.84 32.242 169.645 32.1966 169.47 32.1059C169.296 32.0151 169.149 31.886 169.038 31.7185C168.926 31.5509 168.863 31.3625 168.842 31.1495L169.516 30.9995C169.547 31.1565 169.627 31.2857 169.753 31.3834C169.879 31.4811 170.018 31.53 170.179 31.53ZM174.894 26.9822H177.641L177.505 27.6732H175.606H175.404L175.362 27.8896L175.142 29.024L175.1 29.2439H175.303H176.674L176.542 29.9349H175.166H174.964L174.922 30.1513L174.702 31.2857L174.66 31.5056H174.863H176.762L176.625 32.1966H174.727H173.879L174.894 26.9822ZM178.091 26.9403L180.552 30.5038L180.671 29.8861L181.236 26.9822H181.882L180.852 32.2769L178.402 28.6645L178.325 29.0624L177.718 32.1966H177.069L178.091 26.9403ZM184.419 26.9926H185.065L184.234 31.2787L184.189 31.4986H184.391H186.29L186.157 32.1827H183.41L184.419 26.9926ZM186.601 32.1827L187.609 26.9926H188.255L187.246 32.1827H186.601ZM188.904 26.9368L190.51 30.8215L193.627 26.9368L192.604 32.1827H191.958L192.534 29.2334L190.269 32.064L189.107 29.2334L188.531 32.1827H187.885L188.904 26.9368ZM193.239 32.1827L193.525 30.7133L193.909 28.7448L194.248 26.9926H195.096H195.881C196.108 26.9926 196.307 27.0345 196.482 27.1218C196.653 27.2055 196.806 27.3347 196.935 27.5092C197.061 27.6802 197.148 27.8687 197.19 28.0746C197.228 28.2805 197.221 28.5074 197.176 28.7482C197.127 28.9926 197.047 29.2159 196.928 29.4219C196.81 29.6243 196.653 29.8128 196.461 29.9838C196.265 30.1548 196.059 30.284 195.85 30.3712C195.64 30.455 195.424 30.4969 195.201 30.4969H194.415H194.213L194.171 30.7133L193.885 32.1827H193.239ZM194.391 29.5929L194.345 29.8093H194.548L195.333 29.8128C195.473 29.8128 195.602 29.7883 195.728 29.736C195.85 29.6871 195.972 29.6103 196.094 29.5021C196.206 29.3974 196.304 29.2823 196.377 29.1566C196.45 29.0379 196.499 28.9018 196.53 28.7482C196.558 28.5982 196.562 28.4655 196.534 28.3434C196.513 28.2282 196.464 28.113 196.387 27.9978C196.314 27.8931 196.22 27.8128 196.115 27.7605C196.01 27.7081 195.888 27.6802 195.749 27.6802H194.963H194.761L194.719 27.8966L194.555 28.7448L194.391 29.5929ZM196.953 32.1827L197.961 26.9926H198.607L197.598 32.1827H196.953ZM199.249 26.9822H201.996L201.86 27.6732H199.961H199.759L199.717 27.8896L199.497 29.024L199.455 29.2439H199.658H201.029L200.897 29.9349H199.522H199.319L199.277 30.1513L199.057 31.2857L199.015 31.5056H199.218H201.117L200.981 32.1966H199.082H198.234L199.249 26.9822ZM202.338 26.9926H205.675L202.45 31.4986H202.719H204.736L204.603 32.1827H201.239L204.446 27.6802H204.01H202.202L202.338 26.9926ZM208.01 26.9438L209.064 32.1827H208.373L208.181 31.3276H207.155H206.132L205.609 32.1827H204.918L208.01 26.9438ZM206.478 30.7691H207.263H208.055C207.985 30.4445 207.923 30.092 207.863 29.7185C207.804 29.3451 207.745 28.9926 207.678 28.6645C207.483 28.9926 207.28 29.3451 207.075 29.7185C206.869 30.092 206.67 30.4445 206.478 30.7691Z" fill="#17A7B6"/>
<path d="M16.7002 10.4644L14.7001 17.2991H18.8844L17.7678 21.1398H13.5589L11.3257 28.7722H15.9763L13.7675 32.7969H5.76709L12.3442 10.4644H16.7002ZM21.044 9.85083H10.4422L12.835 6.08374H22.1361L21.044 9.85083Z" fill="#C91A29"/>
<path d="M28.7254 21.95C28.4309 22.9194 27.621 23.3979 26.3081 23.3734C26.9339 23.4102 27.3511 23.6433 27.5842 24.0851C27.8051 24.5268 27.8296 25.0299 27.6579 25.5821L25.5228 32.7972H21.5716L23.7558 25.4226C23.8049 25.2263 23.8171 25.0667 23.7681 24.944C23.719 24.8091 23.5595 24.7477 23.265 24.7477H22.6637C22.3692 24.7477 22.1729 24.7845 22.0624 24.8459C21.9643 24.9195 21.8661 25.0667 21.8048 25.2876L19.5715 32.7972H15.6204L17.8045 25.398C17.8782 25.1526 17.9641 24.9195 18.0745 24.6863C18.1849 24.4532 18.3322 24.2446 18.504 24.0483C18.6758 23.8519 18.8966 23.6924 19.1788 23.5697C19.4611 23.4347 19.8047 23.3611 20.2219 23.3488C19.6206 23.3488 19.2157 23.1525 19.0316 22.7721C18.8353 22.3917 18.823 21.9377 18.9825 21.4224L21.1912 13.9127H25.1424L22.9582 21.3733C22.8846 21.6187 22.9091 21.7782 23.0073 21.8518C23.1055 21.9254 23.265 21.9745 23.4736 21.9745H24.173C24.3693 21.9745 24.5166 21.9377 24.6393 21.8518C24.762 21.7782 24.8602 21.5941 24.946 21.2874L27.1302 13.9127H31.0814L28.7254 21.95Z" fill="#C91A29"/>
<path d="M41.4503 13.9251L40.4318 17.3241H37.7936L33.3026 32.8096H29.4005L34.002 17.3241H31.3025L32.3209 13.9251H41.4503Z" fill="#C91A29"/>
<path d="M40.9102 32.8096H36.9836L42.5422 13.9251H49.6838C50.5304 13.9251 51.1072 14.1705 51.4016 14.6491C51.6961 15.1399 51.7452 15.6921 51.5612 16.3056L49.6592 22.7232C49.5733 23.0054 49.3893 23.2508 49.1316 23.4839C48.8616 23.7171 48.4812 23.8398 48.0027 23.8398C48.2972 23.8889 48.5426 24.0852 48.7512 24.4165C48.9598 24.7478 48.9598 25.2509 48.7512 25.9258L46.7265 32.8096H42.7999L44.9841 25.4104C45.0332 25.2509 45.0455 25.1037 44.9964 24.9687C44.9473 24.8337 44.8123 24.7601 44.5669 24.7601H43.2662L40.9102 32.8096ZM45.4258 21.9747C45.6222 21.9747 45.794 21.9256 45.9535 21.8274C46.113 21.7292 46.248 21.5329 46.3339 21.2384L47.3769 17.729C47.5364 17.2136 47.3278 16.9437 46.7756 16.9437H45.5608L44.0761 21.9624H45.4258V21.9747Z" fill="#C91A29"/>
<path d="M53.5858 13.9251H61.0095L59.991 17.3241H56.5062L55.2914 21.4838H58.6904L57.7087 24.8337H54.3097L53.009 29.2266H56.6166L55.3159 32.8096H48.0149L53.5858 13.9251Z" fill="#C91A29"/>
<path d="M63.746 22.3182L60.6292 32.8096H56.7026L62.2612 13.9251H66.1633L66.8382 20.5267L71.2556 13.9251H75.3049L69.7218 32.8096H65.7952L68.8874 22.3182L64.5804 28.2204L63.746 22.3182Z" fill="#C91A29"/>
<path d="M84.1276 13.9251C84.7288 13.9251 85.1828 14.146 85.4651 14.5877C85.7473 15.0295 85.8209 15.5326 85.6614 16.0847L81.3176 30.8095C81.0722 31.5948 80.6673 32.1225 80.1151 32.3924C79.5506 32.6746 78.9371 32.8096 78.2867 32.8096H73.6362C73.3049 32.8096 72.9981 32.7483 72.7281 32.6378C72.4459 32.5274 72.225 32.3556 72.041 32.1347C71.8569 31.9139 71.7342 31.6316 71.6729 31.3126C71.6115 30.9936 71.6483 30.6377 71.7588 30.2328L76.0167 15.7657C76.1517 15.2135 76.4339 14.7718 76.8634 14.4282C77.2928 14.0846 77.8205 13.9251 78.4585 13.9251H84.1276ZM80.0537 16.9682C79.8574 16.9682 79.7224 17.0173 79.6365 17.1032C79.5506 17.1891 79.4893 17.2995 79.4525 17.4468L75.9676 29.2143C75.8817 29.5211 76.0044 29.6806 76.3357 29.6806H77.3542C77.6855 29.6806 77.8941 29.5211 77.98 29.2143L81.4403 17.4713C81.5262 17.14 81.3912 16.9805 81.0476 16.9805H80.0537V16.9682Z" fill="#C91A29"/>
<path d="M95.4286 28.7847L93.2199 32.8094H87.1459C86.9496 32.8094 86.7655 32.7604 86.5692 32.6745C86.3729 32.5886 86.2134 32.4536 86.0661 32.2818C85.9189 32.11 85.8207 31.8891 85.7716 31.6192C85.7225 31.3492 85.7471 31.0302 85.8452 30.6744L93.0972 6.07172H97.5392L90.8639 28.7724H95.4286V28.7847Z" fill="#27AAE1"/>
<path d="M99.1467 32.8096H95.1219L100.681 13.925H104.705L99.1467 32.8096Z" fill="#27AAE1"/>
<path d="M107.479 22.3182L104.362 32.8096H100.435L105.994 13.925H109.896L110.571 20.5267L114.988 13.925H119.037L113.454 32.8096H109.528L112.62 22.3182L108.313 28.2203L107.479 22.3182Z" fill="#27AAE1"/>
<path d="M118.681 32.8096H114.755L120.313 13.925H127.246C127.676 13.925 128.032 13.9987 128.314 14.1336C128.596 14.2686 128.793 14.4527 128.94 14.6736C129.075 14.8944 129.161 15.1521 129.173 15.4343C129.185 15.7166 129.161 16.0233 129.075 16.3301L126.473 25.1895C126.277 25.8521 125.933 26.3307 125.418 26.6497C124.903 26.9565 124.338 27.1651 123.725 27.2755C123.111 27.3737 122.485 27.4105 121.872 27.3737C121.246 27.3369 120.731 27.2878 120.313 27.2142L118.681 32.8096ZM122.547 24.3674C122.755 24.3674 122.915 24.3183 123.025 24.2324C123.136 24.1465 123.234 23.9502 123.32 23.6311L125.062 17.7412C125.136 17.4958 125.124 17.3117 125.038 17.1645C124.952 17.0295 124.755 16.9559 124.461 16.9559H123.32L121.136 24.3551H122.547V24.3674Z" fill="#27AAE1"/>
<path d="M129.48 32.8096H125.455L131.014 13.925H135.038L129.48 32.8096Z" fill="#27AAE1"/>
<path d="M143.898 13.925C144.499 13.925 144.953 14.1459 145.235 14.5877C145.517 15.0294 145.591 15.5325 145.431 16.0847L141.1 30.8095C140.855 31.5948 140.45 32.1224 139.897 32.3924C139.333 32.6746 138.719 32.8096 138.069 32.8096H133.419C133.087 32.8096 132.78 32.7482 132.51 32.6378C132.228 32.5273 132.007 32.3556 131.823 32.1347C131.639 31.9138 131.517 31.6316 131.455 31.3125C131.394 30.9935 131.431 30.6377 131.541 30.2327L135.799 15.7656C135.934 15.2135 136.216 14.7717 136.646 14.4281C137.075 14.0846 137.603 13.925 138.241 13.925H143.898ZM139.824 16.9682C139.627 16.9682 139.492 17.0172 139.407 17.1031C139.321 17.189 139.259 17.2995 139.223 17.4467L135.738 29.2143C135.652 29.521 135.774 29.6806 136.106 29.6806H137.124C137.456 29.6806 137.664 29.521 137.75 29.2143L141.21 17.4713C141.296 17.14 141.161 16.9804 140.818 16.9804H139.824V16.9682Z" fill="#27AAE1"/>
</svg>
